<?xml version="1.0" encoding="utf-8"?>
<!-- Generator: Adobe Illustrator 24.1.1, SVG Export Plug-In . SVG Version: 6.00 Build 0)  -->
<svg version="1.1" id="Layer_1" xmlns="http://www.w3.org/2000/svg" xmlns:xlink="http://www.w3.org/1999/xlink" x="0px" y="0px"
	 viewBox="0 0 500 500" style="enable-background:new 0 0 500 500;" xml:space="preserve">
<style type="text/css">
	.st0{fill:#4285F4;}
	.st1{fill:#34A853;}
	.st2{fill:#FBBC04;}
	.st3{fill:#EA4335;}
	.st4{fill:#C5221F;}
</style>
<g>
	<path class="st0" d="M34.1,437.5h79.5V244.4L0,159.1v244.3C0,422.3,15.3,437.5,34.1,437.5z"/>
	<path class="st1" d="M386.4,437.5h79.5c18.8,0,34.1-15.3,34.1-34.1V159.1l-113.6,85.2V437.5z"/>
	<path class="st2" d="M386.4,96.6v147.7L500,159.1v-45.5c0-42.1-48.1-66.2-81.8-40.9L386.4,96.6z"/>
	<polygon class="st3" points="113.6,244.4 113.6,96.6 250,198.9 386.4,96.6 386.4,244.4 250,346.6 	"/>
	<path class="st4" d="M0,113.7v45.5l113.6,85.2V96.6L81.8,72.8C48.1,47.5,0,71.6,0,113.7z"/>
</g>
</svg>
